# xmcd
#
# Track frame offsets:
#	150
#	12504
#	24215
#	37265
#	48040
#	61119
#	74492
#	86525
#	101351
#	114300
#	127610
#
# Disc length: 1874 seconds
#
# Revision: 1
# Processed by: cddbd v1.5.2PL0 Copyright (c) Steve Scherf et al.
# Submitted via: MusicManager 7.3.0.0 
#
DISCID=7e07500b
DTITLE=Tom T. Hall - In Search Of A Song
DYEAR=2005
DGENRE=Country
TTITLE0=The Year That Clayton Delaney Died
TTITLE1=Who's Gonna Feed Them Hogs
TTITLE2=Trip To Hyden
TTITLE3=Tulsa Telephone Book
TTITLE4=It Sure Can Get Cold In Des Moines
TTITLE5=The Little Lady Preacher
TTITLE6=L. A. Blues
TTITLE7=Kentucky Feb. 27, '71
TTITLE8=A Million Miles To The City
TTITLE9=Second Handed Flowers
TTITLE10=Ramona's Revenge
EXTD=
EXTT0=
EXTT1=
EXTT2=
EXTT3=
EXTT4=
EXTT5=
EXTT6=
EXTT7=
EXTT8=
EXTT9=
EXTT10=
PLAYORDER=
